<?xml version="1.0" encoding="utf-8"?>
<!-- Generator: Adobe Illustrator 21.0.2, SVG Export Plug-In . SVG Version: 6.00 Build 0)  -->
<svg version="1.1" id="Layer_1" xmlns="http://www.w3.org/2000/svg" xmlns:xlink="http://www.w3.org/1999/xlink" x="0px" y="0px"
	 viewBox="0 0 1751.9 318" style="enable-background:new 0 0 1751.9 318;" xml:space="preserve">
<style type="text/css">
	.st0{fill:#093049;stroke:#093049;stroke-width:2;stroke-miterlimit:10;}
</style>
<g>
	<path class="st0" d="M119.2,210.3H118c-5.7,16.5-22.8,22.5-39.9,22.5c-33.3,0-63.3-27-63.3-72c0-45.9,39.9-71.4,69.3-71.4
		c21.9,0,28.8,7.5,33.6,15.9h1.2V18c-3-0.6-17.1-1.5-20.7-1.5V9.6c19.5,0,47.7-1.2,61.2-1.5l2.1,0.9v212.7l19.8,1.5v6.6
		c-18.9,0-46.5,0.9-60,1.5l-2.1-1.2L119.2,210.3L119.2,210.3z M60.1,160.8c0,49.2,6.3,63.6,27.3,63.6c17.7,0,30-14.7,30-38.7v-55.8
		c0-23.1-12.9-33-29.4-33C68.8,96.9,60.1,114.3,60.1,160.8z"/>
	<path class="st0" d="M196.9,160.8c0-36,30.6-71.4,75.3-71.4s75.3,35.4,75.3,71.4c0,36.3-30.6,72-75.3,72S196.9,197.1,196.9,160.8z
		 M242.2,160.8c0,35.1,4.8,65.7,30,65.7c24.9,0,30.3-30.6,30.3-65.7s-5.4-65.1-30.3-65.1C247,95.7,242.2,125.7,242.2,160.8z"/>
	<path class="st0" d="M466.6,217.8c-6.6,6-20.1,15-46.5,15s-39-8.4-39-32.7l0.9-99.9h-18.9v-5.7c21.3-8.4,42.9-22.5,63-47.1h3.9
		c-1.8,11.1-3.3,34.2-3.6,44.7h34.5v8.1h-34.8l-0.6,104.4c0,13.5,6,15.6,17.1,15.6c7.2,0,16.8-4.5,21.6-8.1L466.6,217.8z"/>
	<path class="st0" d="M562.3,232.8c-50.7,0-80.1-33.3-80.1-71.7c0-36.9,30-71.7,72.6-71.7c34.5,0,59.7,23.4,59.7,59.1h-86.7
		c-0.3,3.9-0.3,8.1-0.3,12.6c0,35.4,3,64.2,39.3,64.2c25.5,0,41.4-13.8,45.3-34.5l6,1.5C614.2,218.7,591.1,232.8,562.3,232.8z
		 M528.1,142.8h45.6c0-34.8-2.4-47.4-18.9-47.4C538.3,95.4,530.2,112.5,528.1,142.8z"/>
	<path class="st0" d="M733.6,92.1c0,0,15.6,0.3,24.9,0.3c10.5,0,21.3-0.3,21.3-0.3v6.6c0,0-10.5,0.6-19.2,1.8l-55.8,131.1h-8.4
		L641.2,99.9c-9-0.9-16.2-1.2-16.2-1.2v-6.6c15,0,22.8,0.3,33.3,0.3c15.9,0,34.5,0,43.8-0.3v6.6c0,0-6,0.3-14.7,1.2l31.5,78h0.9
		l33.6-77.4c-8.1-1.2-19.8-1.8-19.8-1.8L733.6,92.1L733.6,92.1z"/>
	<path class="st0" d="M863.5,232.8c-50.7,0-80.1-33.3-80.1-71.7c0-36.9,30-71.7,72.6-71.7c34.5,0,59.7,23.4,59.7,59.1H829
		c-0.3,3.9-0.3,8.1-0.3,12.6c0,35.4,3,64.2,39.3,64.2c25.5,0,41.4-13.8,45.3-34.5l6,1.5C915.4,218.7,892.3,232.8,863.5,232.8z
		 M829.3,142.8h45.6c0-34.8-2.4-47.4-18.9-47.4S831.4,112.5,829.3,142.8z"/>
	<path class="st0" d="M997.9,111.9c4.2-15.6,15.6-22.8,33.3-22.8c17.1,0,25.5,9,25.5,22.8c0,12.3-9,17.4-17.1,17.4
		c-10.8,0-15.6-7.2-17.7-15.3c-1.8-7.5-3.9-10.8-9-10.8c-6.3,0-10.2,7.8-12.3,15.6c-1.8,7.2-2.7,15.9-2.7,25.5V222
		c3.9,0.3,20.1,2.4,23.1,2.7v6.6c-11.4-0.3-30.9-1.8-44.4-1.8c-6.6,0-32.7,0.6-41.7,0.9v-6.6l18.9-1.8V101.4l-19.5-2.1V93
		c19.8,0,48.3-1.2,61.8-1.5c0.3,0,1.2,0.6,1.2,0.6v19.8H997.9z"/>
	<path class="st0" d="M1155.4,241.5l-60.9-141.6c-7.2-0.6-17.4-1.2-17.4-1.2v-6.6c15,0,31.5,0.3,41.7,0.3c15.9,0,30.9,0,39.9-0.3
		v6.6l-17.4,1.2l36.6,88.5h1.2l36-86.7c-7.8-1.5-20.7-3-20.7-3v-6.6c0,0,16.5,0.3,25.8,0.3c10.2,0,22.8-0.3,22.8-0.3v6.6
		c0,0-10.8,1.5-19.8,3l-40.8,98.4c-23.1,54.6-45.6,108-99.9,108c-20.1,0-42.3-6.9-42.3-21.6c0-7.8,4.5-13.8,15-13.8
		c8.7,0,14.7,7.2,18.9,14.1c6,9.9,11.4,12,16.8,12C1119.7,298.8,1139.5,273.9,1155.4,241.5z"/>
	<path class="st0" d="M1244.8,160.8c0-36,30.6-71.4,75.3-71.4c44.7,0,75.3,35.4,75.3,71.4c0,36.3-30.6,72-75.3,72
		S1244.8,197.1,1244.8,160.8z M1290.1,160.8c0,35.1,4.8,65.7,30,65.7c24.9,0,30.3-30.6,30.3-65.7s-5.4-65.1-30.3-65.1
		C1294.9,95.7,1290.1,125.7,1290.1,160.8z"/>
	<path class="st0" d="M1569.7,222l19.5,1.8v6.6c-8.7-0.3-23.4-0.9-40.8-0.9c-18.6,0-30.6,0.6-41.7,0.9v-6.6
		c2.7-0.3,16.5-1.2,18.9-1.8v-99.9c0-14.4-4.2-21.9-16.5-21.9c-10.2,0-16.5,3.3-22.8,10.2c-5.4,6-9.3,17.1-9.3,36.3V222l19.5,1.8
		v6.6c-10.8-0.3-22.5-0.9-42.3-0.9c-12.3,0-31.8,0.6-40.8,0.9v-6.6c7.5-0.6,14.1-0.9,19.5-1.8V101.4c-5.7-0.9-19.5-2.1-19.5-2.1V93
		c19.2,0,44.4-1.2,60.6-1.5l2.4,1.8l-0.3,21.3h1.2c6-17.4,25.8-25.2,45-25.2c12.6,0,23.7,0.9,32.1,6c8.1,4.8,15.3,14.7,15.3,30
		L1569.7,222L1569.7,222z"/>
	<path class="st0" d="M1685.8,232.8c-50.7,0-80.1-33.3-80.1-71.7c0-36.9,30-71.7,72.6-71.7c34.5,0,59.7,23.4,59.7,59.1h-86.7
		c-0.3,3.9-0.3,8.1-0.3,12.6c0,35.4,3,64.2,39.3,64.2c25.5,0,41.4-13.8,45.3-34.5l6,1.5C1737.7,218.7,1714.6,232.8,1685.8,232.8z
		 M1651.6,142.8h45.6c0-34.8-2.4-47.4-18.9-47.4C1661.8,95.4,1653.7,112.5,1651.6,142.8z"/>
</g>
</svg>
